<svg width="136" height="40" viewBox="0 0 136 40" fill="none" xmlns="http://www.w3.org/2000/svg">
<g clip-path="url(#clip0_1_1900)">
<path fill-rule="evenodd" clip-rule="evenodd" d="M130.662 40.0001H5.6659C2.90918 40.0001 0.664062 37.7457 0.664062 35.0001V5.00006C0.664062 2.24445 2.90918 6.10352e-05 5.6659 6.10352e-05H130.662C133.416 6.10352e-05 135.664 2.24445 135.664 5.00006V35.0001C135.664 37.7457 133.416 40.0001 130.662 40.0001Z" fill="black"/>
<path fill-rule="evenodd" clip-rule="evenodd" d="M130.662 0.80056C132.974 0.80056 134.867 2.68834 134.867 5.00006V35.0001C134.867 37.3118 132.987 39.1996 130.662 39.1996H5.6659C3.35373 39.1996 1.46128 37.3118 1.46128 35.0001V5.00006C1.46128 2.68834 3.34131 0.80056 5.6659 0.80056H130.662ZM130.662 6.10352e-05H5.6659C2.90918 6.10352e-05 0.664062 2.25443 0.664062 5.00006V35.0001C0.664062 37.7557 2.90918 40.0001 5.6659 40.0001H130.662C133.416 40.0001 135.664 37.7557 135.664 35.0001V5.00006C135.664 2.25443 133.416 6.10352e-05 130.662 6.10352e-05Z" fill="#A6A6A6"/>
<path d="M71.7824 13.2319C70.8809 13.2319 70.1209 12.9152 69.5199 12.2918C68.9239 11.6858 68.5911 10.8504 68.606 9.99751C68.606 9.08729 68.9139 8.31672 69.5199 7.70574C70.1184 7.0823 70.8784 6.76559 71.7799 6.76559C72.6715 6.76559 73.4315 7.0823 74.0424 7.70574C74.6484 8.33667 74.9563 9.10724 74.9563 9.99751C74.9464 10.9102 74.6384 11.6808 74.0424 12.2893C73.4439 12.9177 72.6839 13.2319 71.7824 13.2319ZM44.9579 13.2319C44.0762 13.2319 43.3113 12.9202 42.6855 12.3042C42.0646 11.6908 41.7492 10.9152 41.7492 10C41.7492 9.0848 42.0646 8.30924 42.6855 7.69577C43.2989 7.07981 44.0638 6.76809 44.9579 6.76809C45.395 6.76809 45.8197 6.85537 46.227 7.03243C46.6268 7.2045 46.9522 7.43891 47.1931 7.72569L47.2527 7.79801L46.5796 8.46136L46.5101 8.37906C46.1301 7.9252 45.621 7.70325 44.948 7.70325C44.347 7.70325 43.8229 7.91771 43.3908 8.34165C42.9562 8.76809 42.7351 9.32669 42.7351 10.0025C42.7351 10.6783 42.9562 11.2369 43.3908 11.6634C43.8229 12.0873 44.347 12.3018 44.948 12.3018C45.5887 12.3018 46.1276 12.0873 46.5474 11.6634C46.7957 11.414 46.9497 11.0648 47.0043 10.6235H44.8461V9.69078H47.9307L47.9431 9.77557C47.9654 9.93268 47.9878 10.0948 47.9878 10.2444C47.9878 11.1047 47.7295 11.8005 47.2179 12.3142C46.6368 12.9227 45.8768 13.2319 44.9579 13.2319ZM80.6237 13.0998H79.6725L76.7594 8.41896L76.7842 9.26185V13.0973H75.833V6.90026H76.9183L76.9481 6.94764L79.6874 11.3566L79.6626 10.5162V6.90026H80.6237V13.0998ZM64.6348 13.0998H63.6712V7.83293H61.9998V6.90026H66.3038V7.83293H64.6323V13.0998H64.6348ZM61.215 13.0998H60.2539V6.90026H61.215V13.0998ZM55.8134 13.0998H54.8522V7.83293H53.1808V6.90026H57.4848V7.83293H55.8134V13.0998ZM52.5724 13.0898H48.8868V6.90026H52.5724V7.83293H49.8504V9.53367H52.3066V10.4564H49.8504V12.1571H52.5724V13.0898ZM70.2252 11.6509C70.6549 12.0823 71.1764 12.2993 71.7824 12.2993C72.4058 12.2993 72.9149 12.0873 73.3396 11.6509C73.7618 11.2269 73.9753 10.6708 73.9753 10C73.9753 9.32919 73.7618 8.77058 73.342 8.34914C72.9124 7.91771 72.3884 7.70076 71.7849 7.70076C71.1615 7.70076 70.6524 7.91273 70.2302 8.34914C69.808 8.77308 69.5944 9.32919 69.5944 10C69.5944 10.6708 69.8055 11.2294 70.2252 11.6509Z" fill="white"/>
<path fill-rule="evenodd" clip-rule="evenodd" d="M68.5166 21.7557C66.1697 21.7557 64.2673 23.5437 64.2673 26.01C64.2673 28.4539 66.1821 30.2644 68.5166 30.2644C70.8636 30.2644 72.766 28.4639 72.766 26.01C72.766 23.5437 70.8636 21.7557 68.5166 21.7557ZM68.5166 28.5786C67.2327 28.5786 66.1275 27.5113 66.1275 26.0001C66.1275 24.4664 67.2351 23.4215 68.5166 23.4215C69.8006 23.4215 70.9058 24.4664 70.9058 26.0001C70.9083 27.5213 69.8006 28.5786 68.5166 28.5786ZM59.2456 21.7557C56.8987 21.7557 54.9963 23.5437 54.9963 26.01C54.9963 28.4539 56.9111 30.2644 59.2456 30.2644C61.5925 30.2644 63.4949 28.4639 63.4949 26.01C63.4949 23.5437 61.5901 21.7557 59.2456 21.7557ZM59.2456 28.5786C57.9616 28.5786 56.8564 27.5113 56.8564 26.0001C56.8564 24.4664 57.9641 23.4215 59.2456 23.4215C60.5296 23.4215 61.6348 24.4664 61.6348 26.0001C61.6348 27.5213 60.5296 28.5786 59.2456 28.5786ZM48.2137 23.0549V24.8554H52.5177C52.3861 25.8654 52.0533 26.611 51.5441 27.1223C50.9133 27.7557 49.9398 28.444 48.2237 28.444C45.5787 28.444 43.5099 26.2993 43.5099 23.6435C43.5099 20.9876 45.5787 18.843 48.2237 18.843C49.6517 18.843 50.6923 19.409 51.4647 20.1322L52.7362 18.8554C51.6634 17.823 50.2353 17.0325 48.2336 17.0325C44.6051 17.0325 41.5603 20.0001 41.5603 23.6335C41.5603 27.2769 44.6027 30.2345 48.2336 30.2345C50.1931 30.2345 51.6634 29.5911 52.8257 28.3791C54.0103 27.1896 54.3853 25.5113 54.3853 24.1572C54.3853 23.7357 54.353 23.3567 54.286 23.035H48.2112C48.2137 23.0325 48.2137 23.0549 48.2137 23.0549ZM93.3371 24.4564C92.982 23.5013 91.9091 21.7457 89.7087 21.7457C87.5281 21.7457 85.7151 23.4689 85.7151 26.0001C85.7151 28.3891 87.5083 30.2544 89.9198 30.2544C91.8569 30.2544 92.9845 29.0649 93.4489 28.3666L92.0109 27.3991C91.5341 28.1098 90.871 28.5761 89.9297 28.5761C88.9785 28.5761 88.3129 28.1422 87.8709 27.2868L93.5358 24.9302C93.5358 24.9327 93.3371 24.4564 93.3371 24.4564ZM87.5604 25.8779C87.5157 24.2345 88.832 23.3991 89.7733 23.3991C90.5158 23.3991 91.1342 23.7657 91.3453 24.2993L87.5604 25.8779ZM82.9584 30.0001H84.8186V17.5013H82.9584V30.0001ZM79.9037 22.7008H79.8366C79.4169 22.1996 78.6197 21.7457 77.6014 21.7457C75.4879 21.7457 73.5408 23.6135 73.5408 26.0125C73.5408 28.4016 75.478 30.2469 77.6014 30.2469C78.6073 30.2469 79.4169 29.7906 79.8366 29.2794H79.9037V29.8903C79.9037 31.5138 79.0394 32.3891 77.6461 32.3891C76.5062 32.3891 75.7984 31.5661 75.5103 30.8779L73.8935 31.5562C74.3579 32.6784 75.5972 34.0674 77.6437 34.0674C79.8242 34.0674 81.6719 32.7781 81.6719 29.6335V22.0001H79.9136V22.7008C79.9161 22.7008 79.9037 22.7008 79.9037 22.7008ZM77.7678 28.5786C76.4838 28.5786 75.4109 27.5013 75.4109 26.0125C75.4109 24.5113 76.4838 23.424 77.7678 23.424C79.0394 23.424 80.0254 24.5238 80.0254 26.0125C80.0378 27.5013 79.0419 28.5786 77.7678 28.5786ZM102.047 17.5013H97.5989V30.0001H99.459V25.2669H102.049C104.108 25.2669 106.132 23.7681 106.132 21.3891C106.132 19.01 104.116 17.5013 102.047 17.5013ZM102.102 23.5213H99.4566V19.232H102.102C103.495 19.232 104.282 20.3866 104.282 21.3766C104.282 22.3567 103.485 23.5213 102.102 23.5213ZM113.588 21.7332C112.237 21.7332 110.844 22.3342 110.267 23.6435L111.916 24.3317C112.272 23.6435 112.922 23.409 113.61 23.409C114.574 23.409 115.547 23.9876 115.57 25.02V25.1522C115.237 24.9627 114.507 24.6734 113.633 24.6734C111.852 24.6734 110.046 25.6509 110.046 27.4839C110.046 29.1622 111.507 30.2395 113.133 30.2395C114.383 30.2395 115.071 29.6734 115.5 29.0175H115.567V29.9851H117.36V25.1971C117.36 22.9676 115.711 21.7332 113.588 21.7332ZM113.354 28.5786C112.746 28.5786 111.894 28.2794 111.894 27.5113C111.894 26.5437 112.957 26.1771 113.864 26.1771C114.683 26.1771 115.071 26.3542 115.557 26.5986C115.423 27.7208 114.479 28.5686 113.354 28.5786ZM123.902 22.0001L121.766 27.4215H121.699L119.486 22.0001H117.485L120.805 29.5786L118.913 33.7906H120.85L125.958 22.0001H123.902ZM107.158 30.0001H109.018V17.5013H107.158V30.0001Z" fill="white"/>
<path fill-rule="evenodd" clip-rule="evenodd" d="M11.0552 7.5337C10.7671 7.84542 10.6007 8.32173 10.6007 8.94517V31.0574C10.6007 31.6808 10.7671 32.1571 11.0651 32.4564L11.1421 32.5237L23.4803 20.1347V19.8579L11.1322 7.46637L11.0552 7.5337Z" fill="url(#paint0_linear_1_1900)"/>
<path fill-rule="evenodd" clip-rule="evenodd" d="M27.5855 24.2769L23.4702 20.1447V19.8554L27.5855 15.7233L27.6749 15.7781L32.5426 18.5562C33.9359 19.3442 33.9359 20.6459 32.5426 21.444L27.6749 24.222L27.5855 24.2769Z" fill="url(#paint1_linear_1_1900)"/>
<path fill-rule="evenodd" clip-rule="evenodd" d="M27.675 24.222L23.4703 20.0001L11.0551 32.4664C11.5096 32.9552 12.2721 33.01 13.1239 32.5337L27.675 24.222Z" fill="url(#paint2_linear_1_1900)"/>
<path fill-rule="evenodd" clip-rule="evenodd" d="M27.675 15.7781L13.1239 7.47886C12.2721 6.99008 11.5071 7.05742 11.0551 7.54619L23.4703 20.0001L27.675 15.7781Z" fill="url(#paint3_linear_1_1900)"/>
<path opacity="0.2" fill-rule="evenodd" clip-rule="evenodd" d="M27.5856 24.1323L13.1338 32.3767C12.3267 32.843 11.6064 32.8106 11.142 32.3866L11.065 32.4639L11.142 32.5313C11.6064 32.9527 12.3267 32.9876 13.1338 32.5213L27.6849 24.2221L27.5856 24.1323Z" fill="black"/>
<path opacity="0.12" fill-rule="evenodd" clip-rule="evenodd" d="M32.5427 21.2993L27.5732 24.1322L27.6626 24.222L32.5303 21.444C33.2282 21.0449 33.5709 20.5213 33.5709 20.0001C33.5287 20.4789 33.1735 20.9327 32.5427 21.2993Z" fill="black"/>
<path opacity="0.25" fill-rule="evenodd" clip-rule="evenodd" d="M13.124 7.62354L32.5428 18.7008C33.1736 19.0575 33.5287 19.5238 33.5834 20.0001C33.5834 19.4789 33.2406 18.9552 32.5428 18.5562L13.124 7.4789C11.7307 6.6784 10.6007 7.34673 10.6007 8.94523V9.08987C10.6007 7.48887 11.7307 6.83301 13.124 7.62354Z" fill="white"/>
</g>
<defs>
<linearGradient id="paint0_linear_1_1900" x1="22.3736" y1="8.7066" x2="2.59922" y2="13.9539" gradientUnits="userSpaceOnUse">
<stop stop-color="#00A0FF"/>
<stop offset="0.00657" stop-color="#00A1FF"/>
<stop offset="0.2601" stop-color="#00BEFF"/>
<stop offset="0.5122" stop-color="#00D2FF"/>
<stop offset="0.7604" stop-color="#00DFFF"/>
<stop offset="1" stop-color="#00E3FF"/>
</linearGradient>
<linearGradient id="paint1_linear_1_1900" x1="34.3596" y1="20.0001" x2="10.2619" y2="20.0001" gradientUnits="userSpaceOnUse">
<stop stop-color="#FFE000"/>
<stop offset="0.4087" stop-color="#FFBD00"/>
<stop offset="0.7754" stop-color="#FFA500"/>
<stop offset="1" stop-color="#FF9C00"/>
</linearGradient>
<linearGradient id="paint2_linear_1_1900" x1="25.3887" y1="22.2974" x2="9.42588" y2="49.0539" gradientUnits="userSpaceOnUse">
<stop stop-color="#FF3A44"/>
<stop offset="1" stop-color="#C31162"/>
</linearGradient>
<linearGradient id="paint3_linear_1_1900" x1="7.92886" y1="0.178851" x2="15.0505" y2="12.1287" gradientUnits="userSpaceOnUse">
<stop stop-color="#32A071"/>
<stop offset="0.0685" stop-color="#2DA771"/>
<stop offset="0.4762" stop-color="#15CF74"/>
<stop offset="0.8009" stop-color="#06E775"/>
<stop offset="1" stop-color="#00F076"/>
</linearGradient>
<clipPath id="clip0_1_1900">
<rect width="135" height="40" fill="white" transform="translate(0.664062 6.10352e-05)"/>
</clipPath>
</defs>
</svg>
