<svg width="199" height="45" viewBox="0 0 199 45" fill="none" xmlns="http://www.w3.org/2000/svg">
<path d="M139.013 17.4506C147.095 17.2368 155.062 17.4071 162.789 17.9589C166.901 18.2974 171.386 18.5611 176 18.7891C178.724 18.8679 181.294 19.2009 183.56 19.7685C185.985 20.4304 188.412 21.1022 190.706 21.79C191.055 21.8411 191.434 21.8571 191.822 21.8368C192.21 21.8165 192.598 21.7604 192.963 21.672C193.351 21.6015 193.73 21.5155 194.094 21.4151C199.131 19.7997 199.381 18.6354 197.291 17.7307C194.729 16.4389 191.093 15.6805 187.015 15.5873C185.962 15.5178 184.958 15.3825 184.029 15.1848C181.434 14.8057 178.672 14.6078 175.823 14.5966C172.116 14.5425 168.465 14.3702 164.894 14.0809C160.586 13.7786 156.13 13.7135 151.616 13.8868C149.211 13.967 146.821 13.9824 144.46 13.9327C135.847 13.815 127.121 13.9889 118.35 14.4531C111.572 14.7677 104.789 15.0626 98.4589 15.2325C94.3248 15.322 89.5912 15.5945 84.8978 15.842C81.5871 16.0456 78.5147 16.1904 75.331 16.3484C68.9881 16.6717 62.4312 17.0611 55.74 17.5679C47.1164 18.2146 38.1213 19.149 29.377 19.871C27.4712 20.0281 25.4045 20.2853 20.1194 20.8568C14.9172 21.5303 9.75833 22.3472 4.67315 23.3024C0.822785 23.9655 -0.962912 25.1009 1.46597 25.3573C2.23949 25.4031 3.04589 25.3887 3.85313 25.3148C5.7791 25.1451 7.78757 24.9352 9.7696 24.7082C14.2188 24.176 18.8755 23.5479 23.1321 23.1805C32.8754 22.3289 42.7931 21.3348 52.2655 20.708C60.726 20.1517 69.1285 19.6428 77.4885 19.1491C85.3728 18.6718 93.2742 18.2734 100.38 18.1019C112.25 17.7961 124.877 17.1971 135.222 17.4383C136.537 17.5038 137.831 17.4705 139.013 17.4506Z" fill="#04234C"/>
<path d="M135.937 20.55C139.36 20.6555 142.404 20.7841 142.929 21.0879C142.931 21.1042 143.366 21.0941 143.531 21.1032C144.98 21.0739 146.542 21.0031 148.093 20.8964C150.148 20.7756 152.181 20.6098 154.045 20.4113C157.814 19.9389 160.795 19.5008 159.679 19.2848C160.702 18.9005 156.901 18.8425 153.102 18.7872C144.676 18.7277 135.437 18.8509 125.712 19.1526C113.957 19.4724 101.715 19.8355 89.6624 20.1843C87.4857 20.2458 85.2554 20.3161 82.8359 20.4033C65.3802 21.0607 47.6133 21.8965 29.7526 22.9005C28.5602 22.9649 27.3645 23.0377 26.1739 23.1184C21.1014 23.451 16.1118 23.8627 11.4059 24.3368C8.70873 24.6293 10.5486 24.7302 15.1093 24.5071C20.2399 24.2548 25.5049 23.9835 30.6626 23.7295C35.8204 23.4756 41.518 23.167 45.9199 22.9891C56.8282 22.5167 67.6273 22.1127 78.2656 21.7789C85.852 21.5872 93.6013 21.3352 101.464 21.0245C103.474 20.9403 104.973 20.9174 106.903 20.8517C111.205 20.7328 115.432 20.6413 119.564 20.5777C125.635 20.4102 131.219 20.4008 135.937 20.55Z" fill="#04234C"/>
</svg>
