<svg width="29" height="29" viewBox="0 0 29 29" fill="none" xmlns="http://www.w3.org/2000/svg">
<g clip-path="url(#clip0_7_6042)">
<path d="M14.8876 2.52563C18.6343 2.52563 19.078 2.54206 20.5514 2.60779C21.9208 2.66804 22.6603 2.8981 23.1532 3.08981C23.8051 3.34178 24.2761 3.64852 24.7636 4.13602C25.2566 4.629 25.5579 5.09459 25.8098 5.74642C26.0016 6.23939 26.2316 6.98434 26.2919 8.34824C26.3576 9.82717 26.374 10.2709 26.374 14.012C26.374 17.7586 26.3576 18.2023 26.2919 19.6758C26.2316 21.0452 26.0016 21.7846 25.8098 22.2776C25.5579 22.9294 25.2511 23.4005 24.7636 23.888C24.2707 24.381 23.8051 24.6822 23.1532 24.9342C22.6603 25.1259 21.9153 25.356 20.5514 25.4162C19.0725 25.4819 18.6288 25.4984 14.8876 25.4984C11.141 25.4984 10.6973 25.4819 9.22388 25.4162C7.8545 25.356 7.11503 25.1259 6.62206 24.9342C5.97023 24.6822 5.49916 24.3755 5.01166 23.888C4.51868 23.395 4.21742 22.9294 3.96545 22.2776C3.77374 21.7846 3.54368 21.0397 3.48343 19.6758C3.4177 18.1968 3.40127 17.7532 3.40127 14.012C3.40127 10.2654 3.4177 9.8217 3.48343 8.34824C3.54368 6.97886 3.77374 6.23939 3.96545 5.74642C4.21742 5.09459 4.52416 4.62352 5.01166 4.13602C5.50464 3.64304 5.97023 3.34178 6.62206 3.08981C7.11503 2.8981 7.85998 2.66804 9.22388 2.60779C10.6973 2.54206 11.141 2.52563 14.8876 2.52563ZM14.8876 0.000488281C11.0808 0.000488281 10.6042 0.0169209 9.10885 0.0826512C7.61897 0.148382 6.59467 0.389393 5.70731 0.734477C4.78161 1.09599 3.99832 1.57254 3.22051 2.35583C2.43722 3.13363 1.96068 3.91692 1.59916 4.83715C1.25408 5.72998 1.01307 6.7488 0.947336 8.23869C0.881606 9.73953 0.865173 10.2161 0.865173 14.023C0.865173 17.8298 0.881606 18.3064 0.947336 19.8018C1.01307 21.2916 1.25408 22.3159 1.59916 23.2033C1.96068 24.129 2.43722 24.9123 3.22051 25.6901C3.99832 26.4679 4.78161 26.9499 5.70183 27.306C6.59467 27.651 7.61349 27.8921 9.10338 27.9578C10.5987 28.0235 11.0753 28.04 14.8822 28.04C18.689 28.04 19.1656 28.0235 20.661 27.9578C22.1508 27.8921 23.1751 27.651 24.0625 27.306C24.9827 26.9499 25.766 26.4679 26.5438 25.6901C27.3216 24.9123 27.8037 24.129 28.1597 23.2088C28.5048 22.3159 28.7458 21.2971 28.8115 19.8072C28.8773 18.3119 28.8937 17.8353 28.8937 14.0284C28.8937 10.2216 28.8773 9.74501 28.8115 8.24965C28.7458 6.75976 28.5048 5.73546 28.1597 4.8481C27.8146 3.91692 27.3381 3.13363 26.5548 2.35583C25.777 1.57802 24.9937 1.09599 24.0735 0.739955C23.1806 0.39487 22.1618 0.153859 20.6719 0.0881287C19.1711 0.0169209 18.6945 0.000488281 14.8876 0.000488281Z" fill="white"/>
<path d="M14.8876 6.81982C10.911 6.81982 7.68469 10.0461 7.68469 14.0228C7.68469 17.9995 10.911 21.2257 14.8876 21.2257C18.8643 21.2257 22.0906 17.9995 22.0906 14.0228C22.0906 10.0461 18.8643 6.81982 14.8876 6.81982ZM14.8876 18.6951C12.3077 18.6951 10.2153 16.6027 10.2153 14.0228C10.2153 11.4429 12.3077 9.35044 14.8876 9.35044C17.4676 9.35044 19.56 11.4429 19.56 14.0228C19.56 16.6027 17.4676 18.6951 14.8876 18.6951Z" fill="white"/>
<path d="M24.057 6.53512C24.057 7.4663 23.3012 8.21672 22.3754 8.21672C21.4443 8.21672 20.6938 7.46082 20.6938 6.53512C20.6938 5.60394 21.4497 4.85352 22.3754 4.85352C23.3012 4.85352 24.057 5.60942 24.057 6.53512Z" fill="white"/>
</g>
<defs>
<clipPath id="clip0_7_6042">
<rect width="28.0449" height="28.0449" fill="white" transform="translate(0.865173 0.000488281)"/>
</clipPath>
</defs>
</svg>
