<svg width="29" height="29" viewBox="0 0 29 29" fill="none" xmlns="http://www.w3.org/2000/svg">
<path fill-rule="evenodd" clip-rule="evenodd" d="M6.75285 1.46045C5.90058 1.46045 5.08322 1.79901 4.48057 2.40166C3.87793 3.0043 3.53937 3.82166 3.53937 4.67393C3.53937 5.5262 3.87793 6.34356 4.48057 6.9462C5.08322 7.54885 5.90058 7.88741 6.75285 7.88741C7.60512 7.88741 8.42248 7.54885 9.02512 6.9462C9.62777 6.34356 9.96633 5.5262 9.96633 4.67393C9.96633 3.82166 9.62777 3.0043 9.02512 2.40166C8.42248 1.79901 7.60512 1.46045 6.75285 1.46045ZM5.29218 4.67393C5.29218 4.28654 5.44607 3.91501 5.72 3.64108C5.99393 3.36715 6.36545 3.21326 6.75285 3.21326C7.14024 3.21326 7.51177 3.36715 7.7857 3.64108C8.05963 3.91501 8.21352 4.28654 8.21352 4.67393C8.21352 5.06132 8.05963 5.43285 7.7857 5.70678C7.51177 5.98071 7.14024 6.1346 6.75285 6.1346C6.36545 6.1346 5.99393 5.98071 5.72 5.70678C5.44607 5.43285 5.29218 5.06132 5.29218 4.67393ZM3.53937 9.34808C3.53937 9.11565 3.6317 8.89273 3.79606 8.72837C3.96042 8.56401 4.18333 8.47168 4.41577 8.47168H9.08993C9.32236 8.47168 9.54528 8.56401 9.70964 8.72837C9.87399 8.89273 9.96633 9.11565 9.96633 9.34808V24.5391C9.96633 24.7715 9.87399 24.9944 9.70964 25.1588C9.54528 25.3232 9.32236 25.4155 9.08993 25.4155H4.41577C4.18333 25.4155 3.96042 25.3232 3.79606 25.1588C3.6317 24.9944 3.53937 24.7715 3.53937 24.5391V9.34808ZM5.29218 10.2245V23.6627H8.21352V10.2245H5.29218ZM11.7191 9.34808C11.7191 9.11565 11.8115 8.89273 11.9758 8.72837C12.1402 8.56401 12.3631 8.47168 12.5955 8.47168H17.2697C17.5021 8.47168 17.725 8.56401 17.8894 8.72837C18.0538 8.89273 18.1461 9.11565 18.1461 9.34808V9.85523L18.6544 9.63671C19.5309 9.26232 20.4607 9.0277 21.4098 8.94143C24.6525 8.64696 27.4944 11.1944 27.4944 14.4663V24.5391C27.4944 24.7715 27.4021 24.9944 27.2377 25.1588C27.0734 25.3232 26.8504 25.4155 26.618 25.4155H21.9438C21.7114 25.4155 21.4885 25.3232 21.3241 25.1588C21.1598 24.9944 21.0674 24.7715 21.0674 24.5391V16.3593C21.0674 15.9719 20.9136 15.6004 20.6396 15.3265C20.3657 15.0525 19.9942 14.8986 19.6068 14.8986C19.2194 14.8986 18.8478 15.0525 18.5739 15.3265C18.3 15.6004 18.1461 15.9719 18.1461 16.3593V24.5391C18.1461 24.7715 18.0538 24.9944 17.8894 25.1588C17.725 25.3232 17.5021 25.4155 17.2697 25.4155H12.5955C12.3631 25.4155 12.1402 25.3232 11.9758 25.1588C11.8115 24.9944 11.7191 24.7715 11.7191 24.5391V9.34808ZM13.4719 10.2245V23.6627H16.3933V16.3593C16.3933 15.507 16.7319 14.6897 17.3345 14.087C17.9371 13.4844 18.7545 13.1458 19.6068 13.1458C20.459 13.1458 21.2764 13.4844 21.879 14.087C22.4817 14.6897 22.8203 15.507 22.8203 16.3593V23.6627H25.7416V14.4663C25.7416 12.2414 23.8007 10.4839 21.5699 10.6872C20.8035 10.7568 20.0528 10.946 19.345 11.2481L17.6156 11.9901C17.4822 12.0474 17.3367 12.0707 17.192 12.0578C17.0474 12.045 16.9083 11.9964 16.7871 11.9165C16.6659 11.8365 16.5665 11.7277 16.4978 11.5999C16.429 11.472 16.3931 11.329 16.3933 11.1839V10.2245H13.4719Z" fill="white"/>
</svg>
