<svg width="156" height="44" viewBox="0 0 156 44" fill="none" xmlns="http://www.w3.org/2000/svg">
<path d="M42.845 19.6611C46.0571 19.6611 48.3612 20.2161 50.127 21.5447C51.8928 22.8901 52.801 25.1941 52.801 28.4735C52.801 31.7697 51.8928 34.0569 50.127 35.4023C48.3612 36.7477 46.0571 37.3027 42.845 37.3027C40.2046 37.3027 38.2538 36.8655 37.0093 36.0078C35.7648 35.1501 35.1425 33.6869 35.1425 31.652V14.6494C35.1425 13.5059 35.748 12.8836 36.9084 12.8836H39.4142C40.5578 12.8836 41.1632 13.5059 41.1632 14.6494V19.7115C41.7518 19.6779 42.3068 19.6611 42.845 19.6611ZM43.2486 32.5602C44.5436 32.5602 45.4685 32.2574 45.9899 31.652C46.5112 31.0466 46.7803 29.9871 46.7803 28.4735C46.7803 26.9431 46.5112 25.8836 45.9731 25.2782C45.4349 24.6895 44.4931 24.3868 43.1645 24.3868C42.5927 24.3868 41.92 24.4373 41.1632 24.555V30.6934C41.1632 31.4166 41.281 31.9211 41.5332 32.1734C41.7855 32.4256 42.3573 32.5602 43.2486 32.5602Z" fill="white"/>
<path d="M60.3077 37C61.3846 37 62 36.3271 62 35.1495V20.8505C62 19.6729 61.3846 19 60.3077 19H57.6923C56.6154 19 56 19.6729 56 20.8505V35.1495C56 36.3271 56.6154 37 57.6923 37H60.1538H60.3077Z" fill="white"/>
<path d="M59.1776 18.1452C61.243 18.1452 62.3551 17.1974 62.3551 15.5726C62.3551 13.9478 61.243 13 59.1776 13C57.1122 13 56 13.9478 56 15.5726C56 17.1974 57.1122 18.1452 59.1776 18.1452Z" fill="white"/>
<path d="M65.5071 35.251V14.6494C65.5071 13.5059 66.1125 12.8836 67.2561 12.8836H69.8797C71.0233 12.8836 71.6287 13.5059 71.6287 14.6494V35.251C71.6287 36.3946 71.0233 37 69.8797 37H67.2561C66.1125 37 65.5071 36.3946 65.5071 35.251Z" fill="white"/>
<path d="M75.2628 35.251V14.6494C75.2628 13.5059 75.8682 12.8836 77.0118 12.8836H79.6354C80.779 12.8836 81.3844 13.5059 81.3844 14.6494V35.251C81.3844 36.3946 80.779 37 79.6354 37H77.0118C75.8682 37 75.2628 36.3946 75.2628 35.251Z" fill="white"/>
<path d="M85.9423 36.5964C84.9501 36.3441 84.4456 35.705 84.4456 34.6455V34.0737C84.4456 32.8629 85.1519 32.3079 86.3796 32.5097C88.3809 32.8629 90.0795 33.0311 91.6099 33.0142C93.1403 33.0142 94.0652 32.6611 94.0652 31.9379C94.0652 31.4334 93.628 31.0634 92.7703 30.8448L89.4068 29.9871C85.8246 29.0957 84.1765 27.414 84.1765 24.9082C84.1765 19.8797 90.8363 18.7698 97.0924 20.2665C98.1015 20.5188 98.606 21.1578 98.6228 22.2005V22.6882C98.6228 23.8991 97.8828 24.4709 96.672 24.2186C95.007 23.8991 93.4262 23.7478 92.0639 23.7478C90.7017 23.7478 89.7936 24.0673 89.7936 24.6895C89.7936 25.11 90.1131 25.4127 90.7522 25.5641L94.3511 26.4722C97.866 27.3635 99.6319 29.1462 99.6319 31.8202C99.6319 34.4437 97.8828 36.2096 95.2088 36.8486C92.5348 37.5045 89.2554 37.4036 85.9423 36.5964Z" fill="white"/>
<path d="M109.78 19.6611C112.992 19.6611 115.296 20.2161 117.062 21.5615C118.828 22.9069 119.736 25.2109 119.736 28.4903C119.736 31.7866 118.828 34.0737 117.062 35.4023C115.296 36.7477 112.992 37.3027 109.78 37.3027C109.242 37.3027 108.687 37.2859 108.098 37.2523V42.1294C108.098 43.273 107.493 43.8952 106.349 43.8952H103.843C102.7 43.8952 102.077 43.273 102.077 42.1294V25.3286C102.077 23.2937 102.7 21.8306 103.944 20.956C105.189 20.0983 107.139 19.6611 109.78 19.6611ZM110.099 32.577C111.428 32.577 112.37 32.2743 112.908 31.6688C113.446 31.0634 113.715 30.0039 113.715 28.4903C113.715 26.9767 113.446 25.9172 112.925 25.3118C112.403 24.7064 111.478 24.4036 110.183 24.4036C109.292 24.4036 108.72 24.5382 108.468 24.8241C108.216 25.11 108.098 25.6313 108.098 26.4217V32.4256C108.855 32.5265 109.528 32.577 110.099 32.577Z" fill="white"/>
<path d="M131.163 37.3027C125.226 37.3027 122.048 34.141 122.048 28.4903C122.048 22.8228 125.226 19.6611 131.163 19.6611C137.083 19.6611 140.278 22.8228 140.278 28.4903C140.278 34.141 137.083 37.3027 131.163 37.3027ZM128.909 31.6016C129.397 32.2406 130.137 32.5602 131.163 32.5602C132.189 32.5602 132.945 32.2406 133.433 31.6016C133.921 30.9625 134.173 29.9198 134.173 28.4903C134.173 25.5977 133.198 24.4036 131.163 24.4036C129.128 24.4036 128.169 25.5977 128.169 28.4903C128.169 29.9198 128.421 30.9625 128.909 31.6016Z" fill="white"/>
<path d="M154.8 21.7296V22.7723C154.8 23.9159 154.161 24.5382 153.035 24.5382H149.049V30.5084C149.049 31.9884 149.772 32.5938 151.504 32.5938C151.756 32.5938 152.076 32.577 152.463 32.5265C152.833 32.4761 153.085 32.4593 153.236 32.4593C154.262 32.4593 154.767 32.9133 154.784 33.8047V34.9819C154.784 36.0414 154.313 36.6636 153.354 36.8823C147.737 38.1604 142.894 36.8318 142.894 30.5084V17.8448C142.894 16.7012 143.499 16.0958 144.659 16.0958H147.283C148.41 16.0958 149.049 16.7012 149.049 17.8448V19.9638H153.035C154.161 19.9638 154.8 20.6029 154.8 21.7296Z" fill="white"/>
<path fill-rule="evenodd" clip-rule="evenodd" d="M14 6V37H4V16.4974C4 10.7566 8.375 5.83598 13.8438 6.16402H14V6Z" fill="url(#paint0_linear_7_5761)"/>
<g filter="url(#filter0_d_7_5761)">
<path d="M14.5 37C20.299 37 25 32.5228 25 27C25 21.4772 20.299 17 14.5 17C8.70101 17 4 21.4772 4 27C4 32.5228 8.70101 37 14.5 37Z" fill="url(#paint1_linear_7_5761)"/>
</g>
<g filter="url(#filter1_d_7_5761)">
<path fill-rule="evenodd" clip-rule="evenodd" d="M24.3616 23.162C24.8404 24.2957 25 25.5915 25 26.8872C25 27.0492 25 27.2112 25 27.2112L19.414 30.9365C18.9352 31.0984 18.2968 30.9365 17.818 30.6125L15.1048 26.4013C14.9452 26.0774 14.9452 25.7535 15.2644 25.4295L18.1372 23.4859L19.7332 26.0774L24.3616 23V23.162Z" fill="white"/>
</g>
<defs>
<filter id="filter0_d_7_5761" x="0" y="13" width="29" height="28" filterUnits="userSpaceOnUse" color-interpolation-filters="sRGB">
<feFlood flood-opacity="0" result="BackgroundImageFix"/>
<feColorMatrix in="SourceAlpha" type="matrix" values="0 0 0 0 0 0 0 0 0 0 0 0 0 0 0 0 0 0 127 0" result="hardAlpha"/>
<feOffset/>
<feGaussianBlur stdDeviation="2"/>
<feComposite in2="hardAlpha" operator="out"/>
<feColorMatrix type="matrix" values="0 0 0 0 0 0 0 0 0 0 0 0 0 0 0 0 0 0 0.25 0"/>
<feBlend mode="normal" in2="BackgroundImageFix" result="effect1_dropShadow_7_5761"/>
<feBlend mode="normal" in="SourceGraphic" in2="effect1_dropShadow_7_5761" result="shape"/>
</filter>
<filter id="filter1_d_7_5761" x="11" y="20" width="18" height="16" filterUnits="userSpaceOnUse" color-interpolation-filters="sRGB">
<feFlood flood-opacity="0" result="BackgroundImageFix"/>
<feColorMatrix in="SourceAlpha" type="matrix" values="0 0 0 0 0 0 0 0 0 0 0 0 0 0 0 0 0 0 127 0" result="hardAlpha"/>
<feOffset dy="1"/>
<feGaussianBlur stdDeviation="2"/>
<feComposite in2="hardAlpha" operator="out"/>
<feColorMatrix type="matrix" values="0 0 0 0 0 0 0 0 0 0 0 0 0 0 0 0 0 0 0.25 0"/>
<feBlend mode="normal" in2="BackgroundImageFix" result="effect1_dropShadow_7_5761"/>
<feBlend mode="normal" in="SourceGraphic" in2="effect1_dropShadow_7_5761" result="shape"/>
</filter>
<linearGradient id="paint0_linear_7_5761" x1="7.125" y1="19.7778" x2="14.2141" y2="17.6768" gradientUnits="userSpaceOnUse">
<stop stop-color="#6175FC"/>
<stop offset="1" stop-color="#4CB3F8"/>
</linearGradient>
<linearGradient id="paint1_linear_7_5761" x1="10.5625" y1="25.8889" x2="18.9509" y2="17.7967" gradientUnits="userSpaceOnUse">
<stop stop-color="#6175FC"/>
<stop offset="1" stop-color="#4CB3F8"/>
</linearGradient>
</defs>
</svg>
