<svg width="156" height="46" viewBox="0 0 156 46" fill="none" xmlns="http://www.w3.org/2000/svg">
<path d="M42.845 20.1611C46.0571 20.1611 48.3612 20.7161 50.127 22.0447C51.8928 23.3901 52.801 25.6941 52.801 28.9735C52.801 32.2697 51.8928 34.5569 50.127 35.9023C48.3612 37.2477 46.0571 37.8027 42.845 37.8027C40.2046 37.8027 38.2538 37.3655 37.0093 36.5078C35.7648 35.6501 35.1425 34.1869 35.1425 32.152V15.1494C35.1425 14.0059 35.748 13.3836 36.9084 13.3836H39.4142C40.5578 13.3836 41.1632 14.0059 41.1632 15.1494V20.2115C41.7518 20.1779 42.3068 20.1611 42.845 20.1611ZM43.2486 33.0602C44.5436 33.0602 45.4685 32.7574 45.9899 32.152C46.5112 31.5466 46.7803 30.4871 46.7803 28.9735C46.7803 27.4431 46.5112 26.3836 45.9731 25.7782C45.4349 25.1895 44.4931 24.8868 43.1645 24.8868C42.5927 24.8868 41.92 24.9373 41.1632 25.055V31.1934C41.1632 31.9166 41.281 32.4211 41.5332 32.6734C41.7855 32.9256 42.3573 33.0602 43.2486 33.0602Z" fill="#02224B"/>
<path d="M60.4486 37.4907C61.5607 37.4907 62.1963 36.8551 62.1963 35.743V22.2383C62.1963 21.1262 61.5607 20.4907 60.4486 20.4907H57.7477C56.6355 20.4907 56 21.1262 56 22.2383V35.743C56 36.8551 56.6355 37.4907 57.7477 37.4907H60.2897H60.4486Z" fill="#02224B"/>
<path d="M59.1776 19.5374C61.243 19.5374 62.3551 18.4252 62.3551 16.5187C62.3551 14.6121 61.243 13.5 59.1776 13.5C57.1122 13.5 56 14.6121 56 16.5187C56 18.4252 57.1122 19.5374 59.1776 19.5374Z" fill="#02224B"/>
<path d="M65.5071 35.751V15.1494C65.5071 14.0059 66.1125 13.3836 67.2561 13.3836H69.8796C71.0232 13.3836 71.6287 14.0059 71.6287 15.1494V35.751C71.6287 36.8946 71.0232 37.5 69.8796 37.5H67.2561C66.1125 37.5 65.5071 36.8946 65.5071 35.751Z" fill="#02224B"/>
<path d="M75.2628 35.751V15.1494C75.2628 14.0059 75.8682 13.3836 77.0118 13.3836H79.6354C80.779 13.3836 81.3844 14.0059 81.3844 15.1494V35.751C81.3844 36.8946 80.779 37.5 79.6354 37.5H77.0118C75.8682 37.5 75.2628 36.8946 75.2628 35.751Z" fill="#02224B"/>
<path d="M85.9423 37.0964C84.9501 36.8441 84.4456 36.205 84.4456 35.1455V34.5737C84.4456 33.3629 85.1519 32.8079 86.3796 33.0097C88.3809 33.3629 90.0795 33.5311 91.6099 33.5142C93.1403 33.5142 94.0652 33.1611 94.0652 32.4379C94.0652 31.9334 93.628 31.5634 92.7703 31.3448L89.4068 30.4871C85.8246 29.5957 84.1765 27.914 84.1765 25.4082C84.1765 20.3797 90.8363 19.2698 97.0924 20.7665C98.1015 21.0188 98.606 21.6578 98.6228 22.7005V23.1882C98.6228 24.3991 97.8828 24.9709 96.672 24.7186C95.007 24.3991 93.4262 24.2478 92.0639 24.2478C90.7017 24.2478 89.7936 24.5673 89.7936 25.1895C89.7936 25.61 90.1131 25.9127 90.7522 26.0641L94.3511 26.9722C97.866 27.8635 99.6319 29.6462 99.6319 32.3202C99.6319 34.9437 97.8828 36.7096 95.2088 37.3486C92.5348 38.0045 89.2554 37.9036 85.9423 37.0964Z" fill="#02224B"/>
<path d="M109.78 20.1611C112.992 20.1611 115.296 20.7161 117.062 22.0615C118.828 23.4069 119.736 25.7109 119.736 28.9903C119.736 32.2866 118.828 34.5737 117.062 35.9023C115.296 37.2477 112.992 37.8027 109.78 37.8027C109.242 37.8027 108.687 37.7859 108.098 37.7523V42.6294C108.098 43.773 107.493 44.3952 106.349 44.3952H103.843C102.7 44.3952 102.077 43.773 102.077 42.6294V25.8286C102.077 23.7937 102.7 22.3306 103.944 21.456C105.189 20.5983 107.139 20.1611 109.78 20.1611ZM110.099 33.077C111.428 33.077 112.37 32.7743 112.908 32.1688C113.446 31.5634 113.715 30.5039 113.715 28.9903C113.715 27.4767 113.446 26.4172 112.925 25.8118C112.403 25.2064 111.478 24.9036 110.183 24.9036C109.292 24.9036 108.72 25.0382 108.468 25.3241C108.216 25.61 108.098 26.1313 108.098 26.9217V32.9256C108.855 33.0265 109.528 33.077 110.099 33.077Z" fill="#02224B"/>
<path d="M131.163 37.8027C125.226 37.8027 122.048 34.641 122.048 28.9903C122.048 23.3228 125.226 20.1611 131.163 20.1611C137.083 20.1611 140.278 23.3228 140.278 28.9903C140.278 34.641 137.083 37.8027 131.163 37.8027ZM128.909 32.1016C129.397 32.7406 130.137 33.0602 131.163 33.0602C132.189 33.0602 132.945 32.7406 133.433 32.1016C133.921 31.4625 134.173 30.4198 134.173 28.9903C134.173 26.0977 133.198 24.9036 131.163 24.9036C129.128 24.9036 128.169 26.0977 128.169 28.9903C128.169 30.4198 128.421 31.4625 128.909 32.1016Z" fill="#02224B"/>
<path d="M154.8 22.2296V23.2723C154.8 24.4159 154.161 25.0382 153.035 25.0382H149.049V31.0084C149.049 32.4884 149.772 33.0938 151.504 33.0938C151.756 33.0938 152.076 33.077 152.463 33.0265C152.833 32.9761 153.085 32.9593 153.236 32.9593C154.262 32.9593 154.767 33.4133 154.784 34.3047V35.4819C154.784 36.5414 154.313 37.1636 153.354 37.3823C147.737 38.6604 142.894 37.3318 142.894 31.0084V18.3448C142.894 17.2012 143.499 16.5958 144.659 16.5958H147.283C148.41 16.5958 149.049 17.2012 149.049 18.3448V20.4638H153.035C154.161 20.4638 154.8 21.1029 154.8 22.2296Z" fill="#02224B"/>
<path fill-rule="evenodd" clip-rule="evenodd" d="M14.1682 7.85605V37.8841H4V18.0243C4 12.4635 8.4486 7.69717 14.0093 8.01493H14.1682V7.85605Z" fill="url(#paint0_linear_1_1357)"/>
<g filter="url(#filter0_d_1_1357)">
<path d="M14.3271 37.8841C20.0306 37.8841 24.6542 33.1893 24.6542 27.3981C24.6542 21.6068 20.0306 16.9121 14.3271 16.9121C8.6236 16.9121 4 21.6068 4 27.3981C4 33.1893 8.6236 37.8841 14.3271 37.8841Z" fill="url(#paint1_linear_1_1357)"/>
</g>
<g filter="url(#filter1_d_1_1357)">
<path fill-rule="evenodd" clip-rule="evenodd" d="M24.0187 23.7439C24.4953 24.8561 24.6542 26.1271 24.6542 27.3981C24.6542 27.557 24.6542 27.7159 24.6542 27.7159L19.0934 31.3701C18.6168 31.5289 17.9813 31.3701 17.5046 31.0523L14.8037 26.9215C14.6448 26.6037 14.6448 26.286 14.9626 25.9682L17.8224 24.0617L19.4112 26.6037L24.0187 23.585V23.7439Z" fill="white"/>
</g>
<defs>
<filter id="filter0_d_1_1357" x="0" y="12.9121" width="28.6542" height="28.972" filterUnits="userSpaceOnUse" color-interpolation-filters="sRGB">
<feFlood flood-opacity="0" result="BackgroundImageFix"/>
<feColorMatrix in="SourceAlpha" type="matrix" values="0 0 0 0 0 0 0 0 0 0 0 0 0 0 0 0 0 0 127 0" result="hardAlpha"/>
<feOffset/>
<feGaussianBlur stdDeviation="2"/>
<feComposite in2="hardAlpha" operator="out"/>
<feColorMatrix type="matrix" values="0 0 0 0 0 0 0 0 0 0 0 0 0 0 0 0 0 0 0.25 0"/>
<feBlend mode="normal" in2="BackgroundImageFix" result="effect1_dropShadow_1_1357"/>
<feBlend mode="normal" in="SourceGraphic" in2="effect1_dropShadow_1_1357" result="shape"/>
</filter>
<filter id="filter1_d_1_1357" x="10.6993" y="20.585" width="17.9548" height="15.8474" filterUnits="userSpaceOnUse" color-interpolation-filters="sRGB">
<feFlood flood-opacity="0" result="BackgroundImageFix"/>
<feColorMatrix in="SourceAlpha" type="matrix" values="0 0 0 0 0 0 0 0 0 0 0 0 0 0 0 0 0 0 127 0" result="hardAlpha"/>
<feOffset dy="1"/>
<feGaussianBlur stdDeviation="2"/>
<feComposite in2="hardAlpha" operator="out"/>
<feColorMatrix type="matrix" values="0 0 0 0 0 0 0 0 0 0 0 0 0 0 0 0 0 0 0.25 0"/>
<feBlend mode="normal" in2="BackgroundImageFix" result="effect1_dropShadow_1_1357"/>
<feBlend mode="normal" in="SourceGraphic" in2="effect1_dropShadow_1_1357" result="shape"/>
</filter>
<linearGradient id="paint0_linear_1_1357" x1="7.17757" y1="21.2018" x2="14.3271" y2="18.9775" gradientUnits="userSpaceOnUse">
<stop stop-color="#6175FC"/>
<stop offset="1" stop-color="#4CB3F8"/>
</linearGradient>
<linearGradient id="paint1_linear_1_1357" x1="10.4544" y1="26.233" x2="19.2123" y2="18.3086" gradientUnits="userSpaceOnUse">
<stop stop-color="#6175FC"/>
<stop offset="1" stop-color="#4CB3F8"/>
</linearGradient>
</defs>
</svg>
