<svg width="29" height="29" viewBox="0 0 29 29" fill="none" xmlns="http://www.w3.org/2000/svg">
<path fill-rule="evenodd" clip-rule="evenodd" d="M0.910156 13.6018C0.910156 5.78778 7.03447 0 14.9326 0C22.8308 0 28.9551 5.79128 28.9551 13.6053C28.9551 21.4193 22.8308 27.2071 14.9326 27.2071C13.5129 27.2071 12.1527 27.0178 10.8731 26.6672C10.6242 26.6006 10.3578 26.6182 10.1229 26.7233L7.33946 27.9503C7.17135 28.0244 6.9876 28.0562 6.80436 28.0427C6.62112 28.0292 6.44399 27.9709 6.28855 27.8729C6.13311 27.775 6.00412 27.6403 5.91291 27.4808C5.82169 27.3213 5.77105 27.1419 5.76544 26.9582L5.68831 24.4622C5.6813 24.1537 5.54108 23.8662 5.31321 23.6629C2.58584 21.223 0.910156 17.6893 0.910156 13.6018ZM10.6312 11.0462L6.51215 17.5807C6.11601 18.2082 6.88725 18.9128 7.47619 18.4641L11.9003 15.1057C12.0458 14.9951 12.2235 14.935 12.4063 14.9344C12.5891 14.9337 12.7671 14.9927 12.9134 15.1022L16.1912 17.5596C16.4236 17.7342 16.6898 17.8587 16.9728 17.9253C17.2559 17.9918 17.5496 17.999 17.8356 17.9463C18.1215 17.8936 18.3934 17.7822 18.6341 17.6191C18.8748 17.456 19.0791 17.2448 19.234 16.9987L23.3566 10.4678C23.7493 9.84027 22.978 9.13214 22.3891 9.58086L17.965 12.9392C17.8194 13.0498 17.6418 13.1099 17.459 13.1106C17.2762 13.1112 17.0982 13.0523 16.9519 12.9427L13.6741 10.4853C13.4416 10.3107 13.1755 10.1862 12.8924 10.1197C12.6094 10.0531 12.3157 10.046 12.0297 10.0987C11.7438 10.1514 11.4719 10.2628 11.2312 10.4259C10.9905 10.589 10.7862 10.8002 10.6312 11.0462Z" fill="white"/>
</svg>
