<svg width="29" height="29" viewBox="0 0 29 29" fill="none" xmlns="http://www.w3.org/2000/svg">
<path d="M0.82019 28.0454L2.79152 20.8437C1.57507 18.7357 0.935876 16.346 0.937044 13.8956C0.94055 6.23464 7.17471 0.000488281 14.8345 0.000488281C18.5516 0.00165682 22.0409 1.44948 24.6654 4.07635C27.2888 6.70323 28.7331 10.1948 28.7319 13.9084C28.7284 21.5706 22.4943 27.8047 14.8345 27.8047C12.5091 27.8035 10.2176 27.2204 8.18783 26.1127L0.82019 28.0454ZM8.52904 23.5968C10.4875 24.7595 12.3572 25.4559 14.8298 25.4571C21.196 25.4571 26.382 20.2758 26.3855 13.9061C26.3878 7.52354 21.2264 2.34925 14.8392 2.34692C8.46828 2.34692 3.28581 7.52822 3.28347 13.8968C3.2823 16.4968 4.04419 18.4435 5.32374 20.4803L4.15637 24.7431L8.52904 23.5968ZM21.8352 17.2119C21.7487 17.067 21.5174 16.9805 21.1691 16.8064C20.8221 16.6323 19.1148 15.7921 18.7958 15.6764C18.478 15.5608 18.2466 15.5023 18.0141 15.8506C17.7827 16.1976 17.1166 16.9805 16.9145 17.2119C16.7123 17.4433 16.509 17.4725 16.1619 17.2984C15.8149 17.1243 14.6954 16.7585 13.3691 15.5748C12.3373 14.654 11.6397 13.517 11.4375 13.1688C11.2354 12.8217 11.4165 12.6336 11.5894 12.4606C11.746 12.3052 11.9365 12.0551 12.1106 11.8518C12.2871 11.6508 12.3443 11.5059 12.4612 11.2734C12.5769 11.042 12.5196 10.8387 12.432 10.6646C12.3443 10.4916 11.6502 8.78206 11.3616 8.08678C11.0788 7.4102 10.7925 7.50134 10.5798 7.49082L9.91376 7.47914C9.68239 7.47914 9.30612 7.56561 8.98828 7.91384C8.67044 8.26206 7.773 9.10107 7.773 10.8106C7.773 12.5202 9.01749 14.1714 9.19044 14.4027C9.36455 14.6341 11.6385 18.1421 15.1219 19.646C15.9504 20.0035 16.5978 20.2174 17.1014 20.3775C17.9334 20.6416 18.6907 20.6042 19.289 20.5154C19.9562 20.416 21.3432 19.6752 21.633 18.8642C21.9228 18.0521 21.9228 17.3568 21.8352 17.2119Z" fill="white"/>
</svg>
